<?xml version="1.0" encoding="UTF-8" standalone="no"?>
<svg
   xmlns:dc="http://purl.org/dc/elements/1.1/"
   xmlns:cc="http://creativecommons.org/ns#"
   xmlns:rdf="http://www.w3.org/1999/02/22-rdf-syntax-ns#"
   xmlns:svg="http://www.w3.org/2000/svg"
   xmlns="http://www.w3.org/2000/svg"
   xmlns:sodipodi="http://sodipodi.sourceforge.net/DTD/sodipodi-0.dtd"
   xmlns:inkscape="http://www.inkscape.org/namespaces/inkscape"
   width="210mm"
   height="210mm"
   viewBox="0 0 210 210"
   version="1.1"
   id="svg8"
   inkscape:version="1.0.2-2 (e86c870879, 2021-01-15)"
   sodipodi:docname="logo-delivery.svg">
  <defs
     id="defs2">
    <pattern
       id="EMFhbasepattern"
       patternUnits="userSpaceOnUse"
       width="6"
       height="6"
       x="0"
       y="0" />
  </defs>
  <sodipodi:namedview
     id="base"
     pagecolor="#ffffff"
     bordercolor="#666666"
     borderopacity="1.0"
     inkscape:pageopacity="0.0"
     inkscape:pageshadow="2"
     inkscape:zoom="0.35"
     inkscape:cx="400"
     inkscape:cy="560"
     inkscape:document-units="mm"
     inkscape:current-layer="layer1"
     inkscape:document-rotation="0"
     showgrid="false"
     inkscape:snap-page="true"
     inkscape:window-width="1298"
     inkscape:window-height="1040"
     inkscape:window-x="52"
     inkscape:window-y="0"
     inkscape:window-maximized="0" />
  <metadata
     id="metadata5">
    <rdf:RDF>
      <cc:Work
         rdf:about="">
        <dc:format>image/svg+xml</dc:format>
        <dc:type
           rdf:resource="http://purl.org/dc/dcmitype/StillImage" />
        <dc:title></dc:title>
      </cc:Work>
    </rdf:RDF>
  </metadata>
  <g
     inkscape:label="Capa 1"
     inkscape:groupmode="layer"
     id="layer1">
    <path
       style="fill:#ffffff;fill-opacity:1;fill-rule:evenodd;stroke:none;stroke-width:0.377955"
       d="m 98.649499,17.119603 -4.347366,0.395222 -4.742599,0.79043 -4.742608,1.185651 -4.347398,0.790445 -4.347386,1.58086 -4.347384,1.185651 -4.3474,1.976096 -3.952163,1.580859 -3.952177,1.976096 -3.952177,2.371303 -1.976081,1.185653 -1.976082,1.185651 -3.556955,2.371304 -3.556955,2.76651 -3.556955,2.766526 -3.161748,2.766525 -3.161733,3.161734 -2.766525,3.161733 -2.766512,3.161747 -2.766526,3.556955 -2.371303,3.556955 -2.371303,3.952167 -1.976082,3.556951 -1.976095,3.952175 -1.976081,3.95217 -1.185653,4.34739 -1.580873,3.95217 -1.185653,4.34739 -0.790428,4.74261 -0.79043,4.34738 -0.3952217,4.742618 -0.3952217,4.3474 v 4.7426 l 0.3952217,4.34739 v 3.95217 l 0.7904297,3.95217 0.395222,3.95218 0.790428,3.95217 0.790445,3.95217 1.185652,3.55695 1.185651,3.95218 1.58086,3.55695 1.580874,3.55697 1.976081,3.55695 1.976096,3.16172 1.976081,3.55698 2.766526,3.16174 2.371303,2.76652 2.766512,3.16173 3.161746,2.76653 3.161734,2.7665 3.161733,2.37131 3.952177,2.3713 3.556955,2.37131 4.347385,1.97609 4.3474,1.97608 4.347384,1.58088 4.742608,1.58086 5.137829,1.18565 5.137814,1.18565 5.533051,1.18565 5.928259,0.79045 5.928251,0.39521 6.323437,0.39522 h 6.32348 5.13783 l 5.13781,-0.39522 5.13783,-0.79044 4.74261,-0.79042 5.13783,-0.79045 4.7426,-1.18565 4.34739,-1.58086 4.74261,-1.58087 4.34738,-1.97608 4.34738,-2.37131 4.34741,-1.97609 3.95216,-2.76652 3.95217,-2.76652 3.55695,-2.76653 3.55697,-3.16173 3.55695,-3.16173 3.16174,-3.55696 3.16175,-3.55697 2.7665,-3.95216 2.76653,-3.95218 2.3713,-4.34738 2.37131,-4.3474 1.97608,-4.34739 1.58087,-4.7426 1.58088,-4.74261 1.18564,-5.13783 1.18565,-5.13781 0.79044,-5.13783 0.39522,-5.53304 0.39521,-5.53305 -0.39521,-5.533038 -0.39522,-5.92827 -0.39523,-5.53303 -0.79042,-5.13783 -1.18566,-5.13782 -1.58087,-4.742611 -1.58086,-4.742608 -1.58088,-4.347383 -1.97608,-3.952177 -2.3713,-3.952164 -2.37131,-3.952177 -2.3713,-3.161734 -2.76652,-3.556955 -3.16174,-2.766525 -2.76652,-2.766526 -3.55695,-2.76651 -3.16174,-2.371303 -3.55695,-2.371305 -3.55695,-1.976095 -3.95219,-1.976082 -3.95217,-1.580873 -3.95217,-1.58086 -3.95217,-1.185651 -4.34739,-1.185652 -4.34738,-1.185652 -3.95219,-0.790444 -4.74259,-0.79043 -4.34739,-0.395222 -4.34741,-0.395207 h -4.7426 -9.09 z M 143.30903,152.67913 h -1.58086 l -1.58088,0.79042 -1.58087,0.79045 -1.18565,1.18565 -1.18565,1.18565 -0.79044,1.18565 -0.39522,1.58086 v 1.9761 l 0.39522,1.58087 0.39523,1.58086 1.18565,1.18566 1.18565,0.79044 1.18566,1.18565 1.58086,0.39521 1.97609,0.39522 h 1.58086 l 1.9761,-0.39522 1.58086,-0.39521 0.79044,-0.39522 0.79043,-0.39523 0.79043,-0.79042 0.79044,-0.39522 0.79043,-1.58086 0.79043,-1.18566 0.39522,-1.97609 v -1.58088 l -0.39522,-1.97608 -0.79043,-1.18565 -0.39522,-0.79043 -0.39521,-0.39523 -1.58087,-1.18564 -1.18565,-0.79044 -1.58088,-0.39521 -1.97608,-0.39522 z m -32.0126,-39.91694 0.39522,-0.39522 0.39523,-0.39522 1.18564,-1.97608 1.58086,-3.16174 1.58088,-3.95218 3.16173,-9.485218 1.58088,-4.74261 1.18565,-4.7426 1.97608,-8.69478 1.18566,-8.694773 0.39522,-3.952174 0.39522,-3.161737 -0.39522,-1.580874 v -0.79043 l -0.39522,-0.790443 -0.39522,-0.395208 h -0.79044 l -0.79043,0.395208 -0.79043,0.395221 -0.39522,1.185652 -1.58087,2.371303 -1.58087,3.556955 -1.58087,4.347385 -1.58087,4.347395 -2.37131,8.29956 -1.18565,4.74261 -0.79043,5.13781 -0.79043,5.53305 v 5.137828 l -0.39522,4.3474 v 3.55695 l 0.39522,2.3713 v 0.79044 z m 17.78478,30.0365 -3.95217,3.55695 -3.55695,3.16175 -1.58088,1.18566 -0.79043,0.3952 -0.79044,0.39522 h -1.18565 -0.79043 l -1.58088,-0.39522 -0.3952,-0.79042 -0.79045,-0.39523 -0.39521,-0.79043 v -0.79043 l -0.39522,-1.18565 v -1.18565 -2.3713 l 0.39522,-2.76653 0.79044,-3.16174 0.79042,-3.16174 1.58088,-3.95216 1.18565,-3.95219 1.58087,-3.95217 3.55696,-8.69477 7.90435,-18.575228 3.55695,-9.48521 3.16173,-9.08999 1.18565,-4.34739 1.18565,-4.347395 0.39522,-3.952163 0.39523,-1.976092 0.39521,-1.976085 v -3.556955 -1.580874 l -0.39521,-1.580859 -0.79045,-3.161747 -0.79042,-2.371304 -1.58088,-2.371303 -1.18565,-1.185652 -1.18566,-0.79043 -1.18564,-0.79043 -1.18565,-0.790443 -1.58087,-0.395208 -1.97609,-0.395222 -1.58086,-0.395222 h -1.58087 -1.58088 l -1.58086,0.395222 -1.18565,0.79043 -1.58088,0.790443 -3.16174,1.58086 -1.18564,1.185652 -1.18565,1.185652 -1.18566,1.185651 -1.18564,1.976096 -1.18566,1.976081 -1.18565,1.976082 -0.79044,1.976096 -1.18566,2.371303 -1.58086,5.137813 -1.58087,5.533054 -1.18566,5.533029 -1.18564,5.92826 -0.79044,5.53304 -0.79043,5.13782 -1.185654,9.089998 -0.790417,6.71871 v 2.3713 l -0.790434,-0.39522 -1.976081,-0.39523 -2.766492,-0.3952 -3.556958,-0.39522 h -1.976097 l -1.976081,0.39522 h -1.976082 l -2.371303,0.79043 -1.976095,0.79043 -1.976082,1.18565 -1.976081,1.58088 -1.976096,1.58087 -1.976081,2.76652 -1.976083,2.76651 -1.580872,3.16174 -1.580874,3.16175 -1.58086,3.16173 -0.790444,3.55696 -1.185651,3.16173 -0.790431,3.16175 -0.395221,3.55695 -0.395208,2.76651 v 3.16175 l 0.395208,2.76651 v 2.3713 l 0.395221,1.18566 0.395223,1.18565 0.790429,1.97609 0.79043,1.58086 1.185652,1.18567 1.580874,1.18565 1.185652,0.79043 1.580872,0.79043 1.185652,0.79045 1.58086,0.3952 h 1.580874 l 1.580874,0.39522 h 1.580859 1.580873 l 3.556955,-0.79042 3.161734,-0.79045 3.161748,-1.18565 1.976081,-1.18565 1.580874,-1.18566 1.580862,-1.18564 1.580861,-1.18566 1.976068,-2.37131 0.790437,-0.79042 0.790434,1.18565 1.580861,2.76651 2.3713,3.16175 1.18565,1.58087 1.58085,0.79044 2.37131,0.79042 0.79044,0.39522 h 1.18566 l 2.37131,0.39523 1.97608,-0.39523 1.97608,-0.79042 2.3713,-1.18566 3.95218,-2.3713 3.16174,-2.76653 3.16175,-2.76653 3.16172,-2.76651 3.16173,-3.16174 1.9761,-2.76653 0.79043,-1.58086 0.79043,-1.18564 0.39523,-1.18566 v -1.18565 l -0.39523,-0.79044 -0.79043,-0.79044 -0.79043,-0.79042 -0.79044,-0.39523 h -0.79044 l -0.79042,0.39523 -2.3713,1.18564 z m -32.407779,-1.97608 1.185634,-16.59913 -1.185634,-1.18565 -1.185654,-0.79043 -1.185644,-0.79045 -1.185641,-0.3952 -1.185655,-0.39522 h -1.185652 l -1.580874,0.39522 -1.185651,0.3952 -1.185652,0.39523 -0.79043,0.79043 -1.185652,0.79045 -1.976095,2.3713 -1.976082,2.3713 -1.580873,2.76651 -1.185653,2.76653 -1.185651,2.76652 -0.79043,2.76651 -0.395222,2.76653 -0.395207,2.76652 v 1.58086 l 0.395207,1.18566 0.790444,2.3713 0.79043,0.79045 0.790429,0.79042 0.790445,0.79044 1.185651,0.79043 h 1.185652 1.185652 l 1.185651,-0.39521 1.58086,-0.79043 2.766526,-1.9761 2.766525,-2.3713 4.347375,-4.34739 z"
       id="path836" />
  </g>
</svg>
